<svg width="24" height="24" viewBox="0 0 24 24" fill="none" xmlns="http://www.w3.org/2000/svg">
<path fill-rule="evenodd" clip-rule="evenodd" d="M12.5003 4.75C11.1197 4.75003 10.0004 5.86931 10.0003 7.25C10.0003 8.63073 11.1196 9.75003 12.5003 9.75C13.881 9.74997 15.0003 8.63069 15.0003 7.25C15.0004 5.86927 13.8811 4.74997 12.5003 4.75ZM2.25063 7.46097C2.27148 6.23635 3.27071 5.25003 4.50029 5.25C5.74295 5.24997 6.75032 6.25734 6.7503 7.5C6.75028 8.1362 6.48622 8.71073 6.06173 9.11998C6.3458 9.3506 6.67463 9.57501 7.04855 9.7844C8.40756 10.5454 10.1414 10.9727 11.8453 10.7597C13.8967 10.5032 15.3362 10.4801 16.7559 10.8537C18.133 11.2161 19.4062 11.9351 21.1205 12.9147C21.7199 13.2572 21.9281 14.0208 21.5856 14.6202C21.2431 15.2196 20.4795 15.4278 19.8801 15.0853C18.0944 14.0649 17.1176 13.534 16.1197 13.2714C15.7225 13.1668 15.307 13.1018 14.8171 13.0789C14.8736 13.9489 14.8023 14.7709 14.6083 15.5837C15.1634 15.7158 15.678 15.8694 16.1474 16.0095L16.1475 16.0095C16.5001 16.1147 16.8273 16.2123 17.1269 16.2875C18.4147 16.6107 19.6601 16.7168 21.4695 15.8681C22.0946 15.575 22.8389 15.8441 23.132 16.4691C23.4251 17.0941 23.1561 17.8385 22.5311 18.1316C20.0774 19.2823 18.2175 19.1387 16.5184 18.7123C16.028 18.5893 15.5873 18.4582 15.1686 18.3336C14.1189 18.0214 13.2079 17.7505 12.0003 17.7505C10.7928 17.7505 9.88175 18.0215 8.83214 18.3337C8.41343 18.4583 7.97267 18.5894 7.48223 18.7125C5.78313 19.1389 3.92315 19.2826 1.46944 18.1315C0.84443 17.8384 0.575436 17.094 0.868622 16.469C1.16181 15.844 1.90615 15.575 2.53116 15.8682C4.3406 16.717 5.58589 16.6109 6.87363 16.2877C7.17325 16.2125 7.50041 16.1149 7.85311 16.0096L7.85314 16.0096C8.47407 15.8243 9.17414 15.6153 9.94242 15.4636C9.95169 15.4489 9.96132 15.4343 9.97129 15.4198C10.3549 14.8629 10.5323 14.4393 10.6268 14.0429C10.6803 13.8186 10.7119 13.5847 10.7298 13.3119C8.93754 13.2709 7.22548 12.7488 5.82705 11.9657C4.40064 11.1669 3.13804 9.99806 2.54843 8.62004C2.36394 8.29923 2.25628 7.92864 2.25054 7.53336C2.24986 7.50913 2.2499 7.48499 2.25063 7.46097Z" fill="#26272B"/>
</svg>
