<svg width="24" height="24" viewBox="0 0 24 24" fill="none" xmlns="http://www.w3.org/2000/svg">
<path d="M11 9.5V15.5M12.9996 15.5L12.9999 9.5M16 21.5C12 20.2271 4 17.3757 4 16.1536C4 14.8812 8.62573 15.7286 10.9415 16.4886C11.6158 16.7099 12.3842 16.7099 13.0585 16.4886C15.3743 15.7286 20 14.8812 20 16.1536C20 17.3757 12 20.2271 8 21.5M3 12.5C7.8 12.5 9 9.53957 10.2 8.94554C11.4 8.35151 12.6 8.35141 13.8 8.94569C15 9.53998 16.2 12.5 21 12.5M13.25 4.25C13.25 4.94036 12.6904 5.5 12 5.5C11.3096 5.5 10.75 4.94036 10.75 4.25C10.75 3.55964 11.3096 3 12 3C12.6904 3 13.25 3.55964 13.25 4.25Z" stroke="#26272B" stroke-width="2.5" stroke-linecap="round" stroke-linejoin="round"/>
</svg>
